<svg width="536" height="572" viewBox="0 0 536 572" fill="none" xmlns="http://www.w3.org/2000/svg">
<g filter="url(#filter0_b)">
<path d="M184.629 221.584C209.389 221.662 233.104 211.865 250.557 194.349C268.01 176.832 277.77 153.031 277.692 128.181L218.877 127.995C218.906 137.19 215.294 145.996 208.837 152.477C202.379 158.958 193.605 162.583 184.443 162.554L184.629 221.584Z" fill="#160932"/>
</g>
<g filter="url(#filter1_b)">
<path d="M185.302 163.518C172.998 163.556 160.806 166.01 149.423 170.737C138.04 175.464 127.689 182.373 118.961 191.07C110.233 199.766 103.299 210.08 98.5546 221.421C93.8101 232.763 91.3483 244.91 91.3096 257.17C91.2709 269.43 93.6562 281.562 98.3292 292.874C103.002 304.186 109.872 314.456 118.545 323.098C127.218 331.74 137.526 338.584 148.879 343.24C160.232 347.896 172.408 350.272 184.713 350.234L184.899 291.418C180.346 291.432 175.841 290.553 171.64 288.83C167.439 287.108 163.625 284.575 160.416 281.378C157.207 278.18 154.666 274.381 152.937 270.195C151.208 266.01 150.325 261.521 150.339 256.985C150.354 252.448 151.265 247.954 153.02 243.758C154.775 239.561 157.341 235.745 160.57 232.528C163.8 229.31 167.63 226.753 171.841 225.004C176.053 223.255 180.564 222.348 185.117 222.333L185.302 163.518Z" fill="#160932"/>
</g>
<path d="M219.472 128.06C219.472 115.774 221.892 103.608 226.593 92.2565C231.295 80.9053 238.187 70.5914 246.875 61.9036C255.562 53.2158 265.876 46.3242 277.228 41.6224C288.579 36.9206 300.745 34.5006 313.031 34.5006C325.318 34.5006 337.484 36.9206 348.835 41.6224C360.186 46.3242 370.5 53.2158 379.188 61.9036C387.876 70.5914 394.767 80.9053 399.469 92.2565C404.171 103.608 406.591 115.774 406.591 128.06L347.648 128.06C347.648 123.514 346.753 119.013 345.013 114.813C343.274 110.613 340.724 106.797 337.509 103.582C334.295 100.368 330.479 97.8179 326.279 96.0782C322.079 94.3385 317.577 93.4431 313.031 93.4431C308.485 93.4431 303.984 94.3385 299.784 96.0782C295.584 97.8179 291.768 100.368 288.553 103.582C285.339 106.797 282.789 110.613 281.049 114.813C279.31 119.013 278.414 123.514 278.414 128.06L219.472 128.06Z" fill="#514075"/>
<g filter="url(#filter2_b)">
<path d="M348.007 128.06C348.007 142.411 351.323 156.57 357.7 169.44C364.077 182.311 373.343 193.55 384.782 202.286C396.22 211.022 409.525 217.022 423.665 219.822C437.806 222.622 452.405 222.146 466.331 218.432C480.258 214.717 493.14 207.864 503.98 198.402C514.82 188.94 523.327 177.122 528.845 163.864C534.362 150.605 536.742 136.261 535.799 121.941C534.856 107.621 530.616 93.7086 523.407 81.2804L472.123 110.752C474.79 115.35 476.359 120.498 476.708 125.796C477.056 131.095 476.176 136.402 474.135 141.308C472.093 146.213 468.945 150.586 464.935 154.087C460.924 157.588 456.158 160.123 451.005 161.498C445.852 162.872 440.45 163.048 435.218 162.012C429.986 160.976 425.064 158.756 420.831 155.524C416.599 152.291 413.171 148.133 410.811 143.371C408.452 138.609 407.224 133.37 407.224 128.06L348.007 128.06Z" fill="#631B5C"/>
</g>
<g filter="url(#filter3_b)">
<path d="M118.467 452.78C129.398 463.761 142.855 471.864 157.647 476.372C172.439 480.88 188.11 481.654 203.271 478.624C218.432 475.594 232.615 468.855 244.564 459.003C256.513 449.151 265.859 436.491 271.775 422.143C277.69 407.795 279.992 392.204 278.477 376.749C276.962 361.294 271.676 346.453 263.088 333.54C254.5 320.628 242.875 310.042 229.243 302.721C215.61 295.401 200.391 291.571 184.933 291.571L184.933 351.064C190.652 351.064 196.283 352.481 201.328 355.19C206.372 357.899 210.673 361.815 213.85 366.593C217.028 371.37 218.984 376.862 219.544 382.58C220.105 388.298 219.253 394.067 217.064 399.376C214.876 404.684 211.418 409.369 206.996 413.014C202.575 416.659 197.327 419.153 191.718 420.274C186.108 421.395 180.31 421.109 174.837 419.441C169.364 417.773 164.385 414.774 160.341 410.711L118.467 452.78Z" fill="#34BBBB"/>
</g>
<g filter="url(#filter4_b)">
<path d="M160.462 410.166C149.532 399.185 136.075 391.081 121.283 386.573C106.49 382.065 90.8197 381.292 75.6589 384.322C60.4981 387.351 46.3149 394.091 34.3658 403.943C22.4168 413.795 13.0706 426.455 7.15509 440.803C1.23962 455.15 -1.06251 470.742 0.452628 486.197C1.96776 501.652 7.25339 516.493 15.8413 529.406C24.4292 542.318 36.0544 552.904 49.687 560.224C63.3196 567.545 78.5389 571.375 93.9967 571.375L93.9967 511.882C88.2773 511.882 82.6462 510.465 77.6021 507.756C72.5581 505.047 68.2568 501.131 65.0792 496.353C61.9017 491.575 59.946 486.084 59.3854 480.366C58.8248 474.648 59.6766 468.879 61.8653 463.57C64.054 458.261 67.5121 453.577 71.9333 449.932C76.3545 446.286 81.6022 443.793 87.2117 442.672C92.8212 441.551 98.6194 441.837 104.092 443.505C109.566 445.173 114.545 448.171 118.589 452.234L160.462 410.166Z" fill="#EF8457"/>
</g>
<defs>
<filter id="filter0_b" x="148.666" y="98.5735" width="156.494" height="137.902" filterUnits="userSpaceOnUse" color-interpolation-filters="sRGB">
<feFlood flood-opacity="0" result="BackgroundImageFix"/>
<feGaussianBlur in="BackgroundImage" stdDeviation="2"/>
<feComposite in2="SourceAlpha" operator="in" result="effect1_backgroundBlur"/>
<feBlend mode="normal" in="SourceGraphic" in2="effect1_backgroundBlur" result="shape"/>
</filter>
<filter id="filter1_b" x="53.1216" y="148.706" width="216.884" height="228.995" filterUnits="userSpaceOnUse" color-interpolation-filters="sRGB">
<feFlood flood-opacity="0" result="BackgroundImageFix"/>
<feGaussianBlur in="BackgroundImage" stdDeviation="2"/>
<feComposite in2="SourceAlpha" operator="in" result="effect1_backgroundBlur"/>
<feBlend mode="normal" in="SourceGraphic" in2="effect1_backgroundBlur" result="shape"/>
</filter>
<filter id="filter2_b" x="344.006" y="77.2804" width="195.993" height="148.339" filterUnits="userSpaceOnUse" color-interpolation-filters="sRGB">
<feFlood flood-opacity="0" result="BackgroundImageFix"/>
<feGaussianBlur in="BackgroundImage" stdDeviation="2"/>
<feComposite in2="SourceAlpha" operator="in" result="effect1_backgroundBlur"/>
<feBlend mode="normal" in="SourceGraphic" in2="effect1_backgroundBlur" result="shape"/>
</filter>
<filter id="filter3_b" x="114.467" y="287.571" width="168.462" height="196.868" filterUnits="userSpaceOnUse" color-interpolation-filters="sRGB">
<feFlood flood-opacity="0" result="BackgroundImageFix"/>
<feGaussianBlur in="BackgroundImage" stdDeviation="2"/>
<feComposite in2="SourceAlpha" operator="in" result="effect1_backgroundBlur"/>
<feBlend mode="normal" in="SourceGraphic" in2="effect1_backgroundBlur" result="shape"/>
</filter>
<filter id="filter4_b" x="-4" y="378.507" width="168.462" height="196.868" filterUnits="userSpaceOnUse" color-interpolation-filters="sRGB">
<feFlood flood-opacity="0" result="BackgroundImageFix"/>
<feGaussianBlur in="BackgroundImage" stdDeviation="2"/>
<feComposite in2="SourceAlpha" operator="in" result="effect1_backgroundBlur"/>
<feBlend mode="normal" in="SourceGraphic" in2="effect1_backgroundBlur" result="shape"/>
</filter>
</defs>
</svg>
