<svg width="340" height="75" viewBox="0 0 340 75" fill="none" xmlns="http://www.w3.org/2000/svg">
<path d="M200.025 50.3999V67.9999H191.193V50.3999C191.193 49.1626 190.958 48.0106 190.489 46.9439C190.02 45.8773 189.38 44.9386 188.569 44.1279C187.801 43.3173 186.862 42.6986 185.753 42.2719C184.686 41.8026 183.556 41.5679 182.361 41.5679C181.166 41.5679 180.036 41.7813 178.969 42.2079C177.945 42.6346 177.028 43.2319 176.217 43.9999C175.449 44.7679 174.809 45.6639 174.297 46.6879C173.828 47.7119 173.572 48.8213 173.529 50.0159V50.0799V50.2719V50.3999V65.6319V67.9999H164.697V50.3999C164.697 49.1626 164.462 48.0106 163.993 46.9439C163.566 45.8773 162.948 44.9386 162.137 44.1279C161.326 43.3173 160.388 42.6986 159.321 42.2719C158.254 41.8026 157.124 41.5679 155.929 41.5679C154.692 41.5679 153.54 41.8026 152.473 42.2719C151.406 42.6986 150.468 43.3173 149.657 44.1279C148.889 44.8959 148.27 45.8133 147.801 46.8799C147.332 47.9466 147.097 49.0773 147.097 50.2719V50.3999V50.7199V65.6319V71.5L138.265 59.4879V32.7359H147.097V33.8879V35.1039C148.889 34.0373 150.788 33.3333 152.793 32.9919C154.798 32.6506 156.761 32.6506 158.681 32.9919C160.644 33.2906 162.521 33.9306 164.313 34.9119C166.105 35.8506 167.705 37.1093 169.113 38.6879C171.204 36.3413 173.55 34.6986 176.153 33.7599C178.798 32.8213 181.444 32.5013 184.089 32.7999C184.388 32.8426 184.665 32.8853 184.921 32.9279C185.177 32.9279 185.433 32.9706 185.689 33.0559C185.902 33.0559 186.137 33.0986 186.393 33.1839C186.521 33.2266 186.649 33.2693 186.777 33.3119C186.948 33.3119 187.097 33.3333 187.225 33.3759C188.505 33.7599 189.785 34.3146 191.065 35.0399L191.833 35.4239C192.046 35.5519 192.217 35.6799 192.345 35.8079C192.516 35.9359 192.708 36.0639 192.921 36.1919C193.092 36.3199 193.305 36.5119 193.561 36.7679C195.097 38.0053 196.377 39.4773 197.401 41.1839C198.468 42.8906 199.214 44.7679 199.641 46.8159C199.684 47.0293 199.748 47.3066 199.833 47.6479C199.961 48.5439 200.025 49.4613 200.025 50.3999Z" fill="black"/>
<path d="M238.831 32.7359V67.9999H229.999V65.6319C227.055 67.3386 224.026 68.1279 220.911 67.9999C217.796 67.9146 214.938 67.1466 212.335 65.6959C209.775 64.2026 207.663 62.1333 205.999 59.4879C204.378 56.8426 203.567 53.8133 203.567 50.3999C203.567 46.9866 204.378 43.9573 205.999 41.3119C207.663 38.6666 209.775 36.5973 212.335 35.1039C214.938 33.6106 217.796 32.8213 220.911 32.7359C224.026 32.6079 227.055 33.3973 229.999 35.1039V32.7359H238.831ZM229.999 50.3999V50.0799V50.0159C229.956 48.8213 229.7 47.7119 229.231 46.6879C228.762 45.6639 228.122 44.7679 227.311 43.9999C226.5 43.2319 225.562 42.6346 224.495 42.2079C223.471 41.7813 222.362 41.5679 221.167 41.5679C219.93 41.5679 218.778 41.8026 217.711 42.2719C216.644 42.6986 215.706 43.3173 214.895 44.1279C214.127 44.9386 213.508 45.8773 213.039 46.9439C212.57 48.0106 212.335 49.1626 212.335 50.3999C212.335 51.6373 212.57 52.7893 213.039 53.8559C213.508 54.8799 214.127 55.7973 214.895 56.6079C215.706 57.4186 216.644 58.0586 217.711 58.5279C218.778 58.9546 219.93 59.1679 221.167 59.1679C222.362 59.1679 223.471 58.9546 224.495 58.5279C225.562 58.1013 226.5 57.5039 227.311 56.7359C228.122 55.9679 228.762 55.0719 229.231 54.0479C229.7 53.0239 229.956 51.9146 229.999 50.7199V50.6559V50.3999Z" fill="black"/>
<path d="M251.337 50.3999C251.337 51.6373 251.571 52.7893 252.041 53.8559C252.51 54.8799 253.129 55.7973 253.897 56.6079C254.707 57.4186 255.646 58.0586 256.713 58.5279C257.779 58.9546 258.931 59.1679 260.169 59.1679H263.113V67.9999H260.169C257.737 67.9999 255.433 67.5519 253.257 66.6559C251.123 65.7173 249.246 64.4586 247.625 62.8799C246.046 61.2586 244.787 59.3813 243.849 57.2479C242.953 55.1146 242.505 52.8319 242.505 50.3999V23.9039H251.337V32.7359H260.169V41.5679H251.337V44.5119V47.4559V50.3999Z" fill="black"/>
<path d="M300.499 44.3839H290.451C289.086 42.8906 287.507 41.9733 285.715 41.6319C283.966 41.2906 282.302 41.4186 280.723 42.0159C279.144 42.6133 277.8 43.6373 276.691 45.0879C275.582 46.4959 275.027 48.2239 275.027 50.2719C275.027 52.2773 275.582 54.0053 276.691 55.4559C277.8 56.8639 279.144 57.8879 280.723 58.5279C282.302 59.1253 283.966 59.2533 285.715 58.9119C287.507 58.5706 289.086 57.6533 290.451 56.1599H300.499C299.39 59.2746 297.768 61.7493 295.635 63.5839C293.544 65.4186 291.219 66.6773 288.659 67.3599C286.142 67.9999 283.56 68.1066 280.915 67.6799C278.27 67.2106 275.859 66.2506 273.683 64.7999C271.507 63.3066 269.715 61.3439 268.307 58.9119C266.942 56.4373 266.259 53.5573 266.259 50.2719C266.259 46.9866 266.942 44.1279 268.307 41.6959C269.715 39.2213 271.507 37.2586 273.683 35.8079C275.859 34.3146 278.27 33.3546 280.915 32.9279C283.56 32.4586 286.142 32.5653 288.659 33.2479C291.219 33.8879 293.544 35.1253 295.635 36.9599C297.768 38.7946 299.39 41.2693 300.499 44.3839Z" fill="black"/>
<path d="M339.083 50.3359V67.9999H330.315V50.3359C330.315 49.1413 330.08 48.0106 329.611 46.9439C329.141 45.8346 328.501 44.8959 327.691 44.1279C326.923 43.3173 325.984 42.6773 324.875 42.2079C323.808 41.7386 322.677 41.5039 321.483 41.5039C320.245 41.5039 319.093 41.7386 318.027 42.2079C316.96 42.6773 316.021 43.3173 315.211 44.1279C314.443 44.8959 313.824 45.8346 313.355 46.9439C312.885 48.0106 312.651 49.1413 312.651 50.3359V67.9999H303.819V50.3359V23.8399H312.651V35.0399C314.613 33.9306 316.619 33.2266 318.667 32.9279C320.757 32.5866 322.784 32.6079 324.747 32.9919C326.709 33.3759 328.544 34.0799 330.251 35.1039C332 36.0853 333.515 37.3439 334.795 38.8799C336.117 40.3733 337.163 42.1013 337.931 44.0639C338.699 45.9839 339.083 48.0746 339.083 50.3359Z" fill="black"/>
<path d="M25.0774 2.73597C27.0828 3.75997 28.6188 5.16797 29.6854 6.95997C30.7948 8.75197 31.3494 10.7573 31.3494 12.976C31.3494 15.0666 30.7948 17.008 29.6854 18.8C28.6188 20.5493 27.1254 21.936 25.2054 22.96C27.4668 23.728 29.3441 25.136 30.8374 27.184C32.3308 29.232 33.0774 31.4933 33.0774 33.968C33.0774 36.1866 32.5228 38.2346 31.4134 40.112C30.3041 41.9893 28.8321 43.44 26.9974 44.464C26.0588 44.976 25.0134 45.36 23.8614 45.616C22.7094 45.872 21.1734 46 19.2534 46H0.56543V1.45597H18.3574C21.1734 1.45597 23.4134 1.88264 25.0774 2.73597ZM24.0534 21.104C25.5894 20.336 26.8054 19.2266 27.7014 17.776C28.5974 16.3253 29.0454 14.7253 29.0454 12.976C29.0454 11.0133 28.5334 9.30664 27.5094 7.85597C26.4854 6.36264 25.1841 5.27464 23.6054 4.59197C22.4108 4.07997 20.4054 3.82397 17.5894 3.82397H2.86943V22.128H18.7414C20.9601 22.128 22.7308 21.7866 24.0534 21.104ZM25.5894 42.672C27.1681 41.8613 28.4268 40.688 29.3654 39.152C30.3041 37.5733 30.7734 35.8666 30.7734 34.032C30.7734 32.112 30.2828 30.384 29.3014 28.848C28.3201 27.2693 26.9974 26.096 25.3334 25.328C24.0534 24.7306 22.3254 24.432 20.1494 24.432H2.86943V43.696H19.3174C20.9388 43.696 22.2188 43.6106 23.1574 43.44C24.0961 43.2693 24.9068 43.0133 25.5894 42.672Z" fill="black"/>
<path d="M84.4844 46H42.5004L63.4924 0.495972L84.4844 46ZM46.2124 43.632H80.7724L63.4924 6.12797L46.2124 43.632Z" fill="black"/>
<path d="M129.299 46H95.0594V1.45597H112.403C116.115 1.45597 119.145 2.1173 121.491 3.43997C123.795 4.71997 125.587 6.4693 126.867 8.68797C128.147 10.9066 128.787 13.36 128.787 16.048C128.787 19.376 127.763 22.3626 125.715 25.008C123.667 27.6106 121.086 29.3386 117.971 30.192L129.299 46ZM99.0914 3.82397L116.499 28.144C119.358 27.5466 121.726 26.1173 123.603 23.856C125.481 21.5946 126.419 18.992 126.419 16.048C126.419 13.7013 125.843 11.568 124.691 9.64797C123.539 7.72797 121.918 6.25597 119.827 5.23197C117.95 4.2933 115.497 3.82397 112.467 3.82397H99.0914ZM97.4274 5.35997V28.336H113.875L97.4274 5.35997ZM97.4274 43.632H124.819L115.475 30.64L113.491 30.704H97.4274V43.632Z" fill="black"/>
<path d="M96.1626 3.83578L98.4848 2.16897L147.105 70.1814L147.105 74.0928L96.1626 3.83578Z" fill="black"/>
</svg>
