<svg width="339" height="74" viewBox="0 0 339 74" fill="none" xmlns="http://www.w3.org/2000/svg">
<path d="M199.46 49.904V67.504H190.628V49.904C190.628 48.6666 190.393 47.5146 189.924 46.448C189.454 45.3813 188.814 44.4426 188.004 43.632C187.236 42.8213 186.297 42.2026 185.188 41.776C184.121 41.3066 182.99 41.072 181.796 41.072C180.601 41.072 179.47 41.2853 178.404 41.712C177.38 42.1386 176.462 42.736 175.652 43.504C174.884 44.272 174.244 45.168 173.732 46.192C173.262 47.216 173.006 48.3253 172.964 49.52V49.584V49.776V49.904V65.136V67.504H164.132V49.904C164.132 48.6666 163.897 47.5146 163.428 46.448C163.001 45.3813 162.382 44.4426 161.572 43.632C160.761 42.8213 159.822 42.2026 158.756 41.776C157.689 41.3066 156.558 41.072 155.364 41.072C154.126 41.072 152.974 41.3066 151.908 41.776C150.841 42.2026 149.902 42.8213 149.092 43.632C148.324 44.4 147.705 45.3173 147.236 46.384C146.766 47.4506 146.532 48.5813 146.532 49.776V49.904V50.224V65.136V71.004L137.7 58.992V32.24H146.532V33.392V34.608C148.324 33.5413 150.222 32.8373 152.228 32.496C154.233 32.1546 156.196 32.1546 158.116 32.496C160.078 32.7946 161.956 33.4346 163.748 34.416C165.54 35.3546 167.14 36.6133 168.548 38.192C170.638 35.8453 172.985 34.2026 175.588 33.264C178.233 32.3253 180.878 32.0053 183.524 32.304C183.822 32.3466 184.1 32.3893 184.356 32.432C184.612 32.432 184.868 32.4746 185.124 32.56C185.337 32.56 185.572 32.6026 185.828 32.688C185.956 32.7306 186.084 32.7733 186.212 32.816C186.382 32.816 186.532 32.8373 186.66 32.88C187.94 33.264 189.22 33.8186 190.5 34.544L191.268 34.928C191.481 35.056 191.652 35.184 191.78 35.312C191.95 35.44 192.142 35.568 192.356 35.696C192.526 35.824 192.74 36.016 192.996 36.272C194.532 37.5093 195.812 38.9813 196.836 40.688C197.902 42.3946 198.649 44.272 199.076 46.32C199.118 46.5333 199.182 46.8106 199.268 47.152C199.396 48.048 199.46 48.9653 199.46 49.904Z" fill="white"/>
<path d="M238.266 32.24V67.504H229.434V65.136C226.49 66.8426 223.46 67.632 220.346 67.504C217.231 67.4186 214.372 66.6506 211.77 65.2C209.21 63.7066 207.098 61.6373 205.434 58.992C203.812 56.3466 203.002 53.3173 203.002 49.904C203.002 46.4906 203.812 43.4613 205.434 40.816C207.098 38.1706 209.21 36.1013 211.77 34.608C214.372 33.1146 217.231 32.3253 220.346 32.24C223.46 32.112 226.49 32.9013 229.434 34.608V32.24H238.266ZM229.434 49.904V49.584V49.52C229.391 48.3253 229.135 47.216 228.666 46.192C228.196 45.168 227.556 44.272 226.746 43.504C225.935 42.736 224.996 42.1386 223.93 41.712C222.906 41.2853 221.796 41.072 220.602 41.072C219.364 41.072 218.212 41.3066 217.146 41.776C216.079 42.2026 215.14 42.8213 214.33 43.632C213.562 44.4426 212.943 45.3813 212.474 46.448C212.004 47.5146 211.77 48.6666 211.77 49.904C211.77 51.1413 212.004 52.2933 212.474 53.36C212.943 54.384 213.562 55.3013 214.33 56.112C215.14 56.9226 216.079 57.5626 217.146 58.032C218.212 58.4586 219.364 58.672 220.602 58.672C221.796 58.672 222.906 58.4586 223.93 58.032C224.996 57.6053 225.935 57.008 226.746 56.24C227.556 55.472 228.196 54.576 228.666 53.552C229.135 52.528 229.391 51.4186 229.434 50.224V50.16V49.904Z" fill="white"/>
<path d="M250.771 49.904C250.771 51.1413 251.006 52.2933 251.475 53.36C251.945 54.384 252.563 55.3013 253.331 56.112C254.142 56.9226 255.081 57.5626 256.147 58.032C257.214 58.4586 258.366 58.672 259.603 58.672H262.547V67.504H259.603C257.171 67.504 254.867 67.056 252.691 66.16C250.558 65.2213 248.681 63.9626 247.059 62.384C245.481 60.7626 244.222 58.8853 243.283 56.752C242.387 54.6186 241.939 52.336 241.939 49.904V23.408H250.771V32.24H259.603V41.072H250.771V44.016V46.96V49.904Z" fill="white"/>
<path d="M299.934 43.888H289.886C288.52 42.3946 286.942 41.4773 285.15 41.136C283.4 40.7946 281.736 40.9226 280.158 41.52C278.579 42.1173 277.235 43.1413 276.126 44.592C275.016 46 274.462 47.728 274.462 49.776C274.462 51.7813 275.016 53.5093 276.126 54.96C277.235 56.368 278.579 57.392 280.158 58.032C281.736 58.6293 283.4 58.7573 285.15 58.416C286.942 58.0746 288.52 57.1573 289.886 55.664H299.934C298.824 58.7786 297.203 61.2533 295.07 63.088C292.979 64.9226 290.654 66.1813 288.094 66.864C285.576 67.504 282.995 67.6106 280.35 67.184C277.704 66.7146 275.294 65.7546 273.118 64.304C270.942 62.8106 269.15 60.848 267.742 58.416C266.376 55.9413 265.694 53.0613 265.694 49.776C265.694 46.4906 266.376 43.632 267.742 41.2C269.15 38.7253 270.942 36.7626 273.118 35.312C275.294 33.8186 277.704 32.8586 280.35 32.432C282.995 31.9626 285.576 32.0693 288.094 32.752C290.654 33.392 292.979 34.6293 295.07 36.464C297.203 38.2986 298.824 40.7733 299.934 43.888Z" fill="white"/>
<path d="M338.517 49.84V67.504H329.749V49.84C329.749 48.6453 329.515 47.5146 329.045 46.448C328.576 45.3386 327.936 44.4 327.125 43.632C326.357 42.8213 325.419 42.1813 324.309 41.712C323.243 41.2426 322.112 41.008 320.917 41.008C319.68 41.008 318.528 41.2426 317.461 41.712C316.395 42.1813 315.456 42.8213 314.645 43.632C313.877 44.4 313.259 45.3386 312.789 46.448C312.32 47.5146 312.085 48.6453 312.085 49.84V67.504H303.253V49.84V23.344H312.085V34.544C314.048 33.4346 316.053 32.7306 318.101 32.432C320.192 32.0906 322.219 32.112 324.181 32.496C326.144 32.88 327.979 33.584 329.685 34.608C331.435 35.5893 332.949 36.848 334.229 38.384C335.552 39.8773 336.597 41.6053 337.365 43.568C338.133 45.488 338.517 47.5786 338.517 49.84Z" fill="white"/>
<path d="M24.512 2.24C26.5173 3.264 28.0533 4.672 29.12 6.464C30.2293 8.256 30.784 10.2613 30.784 12.48C30.784 14.5707 30.2293 16.512 29.12 18.304C28.0533 20.0533 26.56 21.44 24.64 22.464C26.9013 23.232 28.7787 24.64 30.272 26.688C31.7653 28.736 32.512 30.9973 32.512 33.472C32.512 35.6907 31.9573 37.7387 30.848 39.616C29.7387 41.4933 28.2667 42.944 26.432 43.968C25.4933 44.48 24.448 44.864 23.296 45.12C22.144 45.376 20.608 45.504 18.688 45.504H0V0.959999H17.792C20.608 0.959999 22.848 1.38667 24.512 2.24ZM23.488 20.608C25.024 19.84 26.24 18.7307 27.136 17.28C28.032 15.8293 28.48 14.2293 28.48 12.48C28.48 10.5173 27.968 8.81067 26.944 7.36C25.92 5.86667 24.6187 4.77867 23.04 4.096C21.8453 3.584 19.84 3.328 17.024 3.328H2.304V21.632H18.176C20.3947 21.632 22.1653 21.2907 23.488 20.608ZM25.024 42.176C26.6027 41.3653 27.8613 40.192 28.8 38.656C29.7387 37.0773 30.208 35.3707 30.208 33.536C30.208 31.616 29.7173 29.888 28.736 28.352C27.7547 26.7733 26.432 25.6 24.768 24.832C23.488 24.2347 21.76 23.936 19.584 23.936H2.304V43.2H18.752C20.3733 43.2 21.6533 43.1147 22.592 42.944C23.5307 42.7733 24.3413 42.5173 25.024 42.176Z" fill="white"/>
<path d="M83.919 45.504H41.935L62.927 0L83.919 45.504ZM45.647 43.136H80.207L62.927 5.632L45.647 43.136Z" fill="white"/>
<path d="M128.734 45.504H94.494V0.959999H111.838C115.55 0.959999 118.579 1.62133 120.926 2.944C123.23 4.224 125.022 5.97333 126.302 8.192C127.582 10.4107 128.222 12.864 128.222 15.552C128.222 18.88 127.198 21.8667 125.15 24.512C123.102 27.1147 120.521 28.8427 117.406 29.696L128.734 45.504ZM98.526 3.328L115.934 27.648C118.793 27.0507 121.161 25.6213 123.038 23.36C124.915 21.0987 125.854 18.496 125.854 15.552C125.854 13.2053 125.278 11.072 124.126 9.152C122.974 7.232 121.353 5.76 119.262 4.736C117.385 3.79733 114.931 3.328 111.902 3.328H98.526ZM96.862 4.864V27.84H113.31L96.862 4.864ZM96.862 43.136H124.254L114.91 30.144L112.926 30.208H96.862V43.136Z" fill="white"/>
<path d="M95.5972 3.33982L97.9194 1.673L146.539 69.6854L146.539 73.5968L95.5972 3.33982Z" fill="white"/>
</svg>
